<svg width="116" height="48" viewBox="0 0 116 48" fill="none" xmlns="http://www.w3.org/2000/svg">
<g id="Group 145">
<path id="Vector" d="M7.03974 30.9115C8.94222 25.704 15.1838 21.8851 22.5866 21.8851C31.5019 21.8851 38.7307 27.4237 38.7307 34.2545C38.7307 41.0852 31.5019 46.6239 22.5866 46.6239C14.4396 46.6239 7.69991 42.0003 6.59863 35.9903" stroke="#EB601D" stroke-width="2" stroke-miterlimit="10"/>
<path id="Vector_2" d="M98.9711 45.3548C107.43 45.3548 114.287 40.1009 114.287 33.6199C114.287 27.1389 107.43 21.8851 98.9711 21.8851C90.5124 21.8851 83.6553 27.1389 83.6553 33.6199C83.6553 40.1009 90.5124 45.3548 98.9711 45.3548Z" stroke="#EB601D" stroke-width="2" stroke-miterlimit="10"/>
<path id="Vector_3" d="M25.2549 14.0197L48.1686 16.1556" stroke="#EB601D" stroke-width="2" stroke-miterlimit="10"/>
<path id="Vector_4" d="M28.042 21.8851L36.7112 15.0889" stroke="#EB601D" stroke-width="2" stroke-miterlimit="10"/>
<path id="Vector_5" d="M22.2236 33.6199L28.0421 21.8851" stroke="#EB601D" stroke-width="2" stroke-miterlimit="10"/>
<path id="Vector_6" d="M98.9713 34.827L79.2054 5.3818L73.1438 1.94458L65.627 3.80229" stroke="#EB601D" stroke-width="2" stroke-miterlimit="10"/>
<path id="Vector_7" d="M75.8108 26.4673C75.8108 26.4673 79.9339 26.4673 78.8416 29.9965C78.0644 32.514 75.8679 37.6756 74.6706 40.43C74.1964 41.5221 72.8641 42.2578 71.3607 42.2578H46.5355C45.9294 42.2578 45.3232 42.2026 44.7351 42.09L27.9219 38.9126" stroke="#EB601D" stroke-width="2" stroke-miterlimit="10"/>
<path id="Vector_8" d="M39.5594 21.8483L46.8842 19.5331C47.5954 19.317 48.3636 19.7193 48.3636 20.3056L47.3193 26.1592C47.3193 26.8306 46.3321 27.2237 45.6179 26.8375L39.3133 23.4485C38.5361 23.0301 38.6772 22.1173 39.5594 21.8506V21.8483Z" stroke="#EB601D" stroke-width="2" stroke-miterlimit="10"/>
<path id="Vector_9" d="M69.2396 35.5122L71.1211 30.8564L74.2029 23.2324C74.524 22.4254 73.7378 21.6093 72.6365 21.6093H59.4362C58.3079 21.6093 57.3117 22.1702 56.9756 22.9956L53.8698 30.5046L49.8038 30.4679C48.6365 30.4564 47.5892 31.0105 47.1871 31.8519L45.7108 34.9374C45.2487 35.903 46.1789 36.9285 47.5232 36.9331L66.62 36.9928C67.8233 36.9974 68.8856 36.3974 69.2366 35.5168L69.2396 35.5122Z" stroke="#EB601D" stroke-width="2" stroke-miterlimit="10"/>
<path id="Vector_10" d="M53.8701 30.5023H71.1214" stroke="#EB601D" stroke-width="2" stroke-miterlimit="10"/>
<path id="Vector_11" d="M52.6692 16.8362C53.1433 17.0155 53.6715 17.0983 54.1996 17.0914L72.7773 16.7695C72.7773 16.7695 78.9768 16.7695 77.4554 10.8515C75.934 4.9335 66.2506 7.93389 66.2506 7.93389L53.1253 11.286C51.67 11.6585 50.5387 12.5828 50.2596 13.7369C50.0106 14.7624 50.3766 15.9671 52.6722 16.8362H52.6692Z" stroke="#EB601D" stroke-width="2" stroke-miterlimit="10"/>
<path id="Vector_12" d="M3.79961 31.1956L2.56403 33.6865C2.33558 34.147 2.63765 34.6622 3.23873 34.8372L25.1093 41.206C25.7103 41.381 26.3828 41.1496 26.6112 40.689L27.8468 38.1982C28.0753 37.7376 27.7732 37.2224 27.1721 37.0474L5.30159 30.6786C4.70051 30.5036 4.02806 30.735 3.79961 31.1956Z" stroke="#EB601D" stroke-width="2" stroke-miterlimit="10"/>
<path id="Vector_13" d="M1 31.8197L3.18155 32.4391" stroke="#EB601D" stroke-width="2" stroke-miterlimit="10"/>
<path id="Vector_14" d="M86.0469 1.08704V7.17288" stroke="#EB601D" stroke-width="2" stroke-miterlimit="10"/>
</g>
</svg>
