<svg width="62" height="49" viewBox="0 0 62 49" fill="none" xmlns="http://www.w3.org/2000/svg">
<g id="Group 141">
<path id="Vector" d="M31 33.2957V40.3493" stroke="#EB601D" stroke-width="2" stroke-linecap="round"/>
<path id="Vector_2" d="M41.4081 47.4031H20.5918L21.6029 43.5749C21.7376 43.0634 22.1015 42.6031 22.6328 42.2723C23.1641 41.9414 23.8299 41.7604 24.5172 41.7601H37.4828C38.17 41.7604 38.8358 41.9414 39.3671 42.2723C39.8984 42.6031 40.2623 43.0634 40.397 43.5749L41.4081 47.4031Z" stroke="#EB601D" stroke-width="2" stroke-linecap="round" stroke-linejoin="round"/>
<path id="Vector_3" d="M52 8.37268L54.847 9.08595C57.817 9.83082 59.302 10.2033 60.151 11.0903C61 11.9774 61 13.1556 61 15.5099V15.6747C61 17.6158 61 18.5887 60.379 19.3832C59.758 20.1777 58.627 20.6495 56.371 21.5952L47.5 25.3015M10 8.37268L7.153 9.08595C4.183 9.83082 2.698 10.2033 1.849 11.0903C1 11.9774 1 13.1579 1 15.5099V15.6747C1 17.6158 1 18.5887 1.621 19.3832C2.242 20.1777 3.373 20.6495 5.629 21.5952L14.5 25.3015M28.438 10.6818C29.578 9.14012 30.148 8.37268 31 8.37268C31.852 8.37268 32.422 9.14012 33.562 10.6818L33.856 11.079C34.18 11.5169 34.342 11.7336 34.594 11.8781C34.849 12.0225 35.164 12.0767 35.794 12.1828L36.364 12.2821C38.578 12.6591 39.685 12.8464 39.949 13.4829C40.213 14.1217 39.457 14.7853 37.948 16.1125L37.558 16.4556C37.129 16.8326 36.913 17.0199 36.817 17.2547C36.721 17.4894 36.754 17.74 36.817 18.2433L36.877 18.7015C37.105 20.4734 37.219 21.3605 36.532 21.7532C35.842 22.146 34.804 21.7871 32.731 21.0693L32.197 20.8842C31.606 20.6811 31.312 20.5795 31 20.5795C30.688 20.5795 30.394 20.6811 29.803 20.8842L29.269 21.0693C27.196 21.7894 26.158 22.146 25.468 21.7532C24.778 21.3605 24.895 20.4734 25.123 18.7015L25.183 18.2433C25.246 17.74 25.279 17.4894 25.183 17.2547C25.087 17.0222 24.871 16.8326 24.442 16.4556L24.052 16.1125C22.543 14.7853 21.787 14.1217 22.051 13.4829C22.315 12.8464 23.422 12.6591 25.636 12.2821L26.206 12.1828C26.836 12.0767 27.151 12.0248 27.406 11.8781C27.658 11.7336 27.82 11.5169 28.144 11.079L28.438 10.6818Z" stroke="#EB601D" stroke-width="2"/>
<path id="Vector_4" d="M48.8751 47.4031H13.126M45.896 2.37023C48.1035 2.69511 49.4143 3.05457 50.5433 4.13292C51.9644 5.48317 51.8899 6.94171 51.738 9.8588C51.2017 20.3497 48.1631 33.578 31.0035 33.578C13.844 33.578 10.8024 20.352 10.2602 9.8588C10.1112 6.94171 10.0367 5.48086 11.4518 4.13292C12.8698 2.78267 14.5649 2.56147 17.9581 2.11907C22.2693 1.57257 26.6319 1.30512 31.0005 1.31952C33.1395 1.31952 35.1296 1.37713 36.9587 1.47621" stroke="#EB601D" stroke-width="2" stroke-linecap="round"/>
</g>
</svg>
