<svg width="44" height="49" viewBox="0 0 44 49" fill="none" xmlns="http://www.w3.org/2000/svg">
<g id="Group 142">
<path id="Vector" d="M21.7703 1.31897C10.3033 1.31897 1 8.12003 1 16.4965C1 26.1347 14.8468 41.4086 19.9312 46.6841C20.1423 46.9068 20.4189 47.0881 20.7385 47.213C21.0581 47.3379 21.4116 47.4031 21.7703 47.4031C22.1289 47.4031 22.4824 47.3379 22.802 47.213C23.1216 47.0881 23.3982 46.9068 23.6093 46.6841C28.6937 41.4108 42.5405 26.1425 42.5405 16.4965C42.5405 8.12003 33.2372 1.31897 21.7703 1.31897Z" stroke="#EB601D" stroke-width="2" stroke-linecap="round" stroke-linejoin="round"/>
<path id="Vector_2" d="M21.7701 22.5896C25.5938 22.5896 28.6935 20.2088 28.6935 17.2719C28.6935 14.3351 25.5938 11.9543 21.7701 11.9543C17.9464 11.9543 14.8467 14.3351 14.8467 17.2719C14.8467 20.2088 17.9464 22.5896 21.7701 22.5896Z" stroke="#EB601D" stroke-width="2" stroke-linecap="round" stroke-linejoin="round"/>
</g>
</svg>
